<?xml version="1.0" encoding="UTF-8"?>
<svg xmlns="http://www.w3.org/2000/svg" version="1.1" viewBox="0 0 553 532">
  <defs>
    <style>
      .cls-1 {
        fill: #cc231f;
      }

      .cls-2 {
        fill: #fff;
      }
    </style>
  </defs>
  <!-- Generator: Adobe Illustrator 28.7.1, SVG Export Plug-In . SVG Version: 1.2.0 Build 142)  -->
  <g>
    <g id="Layer_1">
      <path class="cls-2" d="M84,423L224.9,103.8h88.9l141.4,319.2h-93.9l-110.4-275h35.6l-110.4,275h-92.1ZM161.1,361l23.3-66.6h156l23.3,66.6h-202.6Z"/>
      <g>
        <path class="cls-1" d="M343.2,363.6c-59.3-88-123.1,8-161.8-3.5,17.7,13.2,28.9,17.6,53,14.9-7.8-2.2-11.7-3.4-13.7-5.7,7.5.5,13.8,1.4,25.1,0-6.7-1-12.4-2.5-16.5-4,7.2-1.5,13.3-2.3,23.9-1.7-4.4-1.9-7.2-3.1-12.5-5.2,38-28.2,61.2-21.7,102.5,5.2Z"/>
        <path class="cls-1" d="M223.6,271l-79.2,46c59.3,110.4,126.5-100.6,232.5,47.7.1-22.5-1.2-35.2-6.8-58.1,43.3,49.7,47.7,83.4,38.7,148.3,35-47,44.4-81,34.8-161.6,16.6,11.1,21.2,22.9,22.2,52.3,7.4-71.3.2-107.5-72.4-152.4-.6,18.2-3.3,25.9-12.5,35.1,7.4-68.1-7-96-66.7-126.5,10.2,123.2-84.9,60.6-90.6,169.2Z"/>
        <path class="cls-1" d="M267.5,187.1v-67.3c21.7,15.5,31.9,26.4,36.5,36.8-1.2,16.7-23.4,21.3-36.5,30.5Z"/>
      </g>
      <path class="cls-2" d="M262.3,243.4c-3.4,2.9-6.4,8.9-5.7,18.4,19.1-1.3,23.8-8.2,23.9-28.7-2.9.4-18.3,9.5-18.2,10.3Z"/>
    </g>
  </g>
</svg>